<svg xmlns="http://www.w3.org/2000/svg" width="1101.1263" height="1077.59" viewBox="0 0 1101.1263 1077.59"><polygon points="502.406 852.933 619.09 738.731 747.434 738.731 747.434 620.599 864.124 620.599 864.124 771.931 781.365 852.933 502.406 852.933" fill="#1e1e26"/><polygon points="319.774 852.933 237.002 771.943 237.002 498.953 353.699 613.143 353.699 738.731 474.411 738.731 474.411 852.933 319.774 852.933" fill="#1e1e26"/><polygon points="237.005 459.889 237.005 308.545 319.77 227.549 598.729 227.549 482.038 341.745 353.701 341.745 353.701 459.889 237.005 459.889" fill="#1e1e26"/><polygon points="747.431 467.341 747.431 341.741 626.712 341.741 626.712 227.551 781.356 227.551 864.122 308.547 864.122 581.532 747.431 467.341" fill="#1e1e26"/></svg>