<svg xmlns="http://www.w3.org/2000/svg" width="1101.1263" height="1077.59" viewBox="0 0 1101.1263 1077.59"><polygon points="379.366 694.612 379.366 344.504 500.181 226.27 500.181 694.612 379.366 694.612" fill="#1e1e26"/><polygon points="214.307 694.61 214.307 371.419 335.125 253.191 335.125 694.61 214.307 694.61" fill="#1e1e26"/><polygon points="544.42 344.504 665.238 226.27 665.238 568.295 544.42 686.529 544.42 344.504" fill="#1e1e26"/><polygon points="709.483 533.085 709.483 344.504 830.293 226.271 830.293 533.085 709.483 533.085" fill="#1e1e26"/><polygon points="597.523 694.608 718.333 576.381 886.819 576.381 886.819 694.608 597.523 694.608" fill="#1e1e26"/><polygon points="346.959 856.14 226.141 737.906 829.329 737.906 708.513 856.14 346.959 856.14" fill="#1e1e26"/></svg>