<svg xmlns="http://www.w3.org/2000/svg" width="32.173" height="32.299" viewBox="0 0 33.07 33.07">
  <path id="Instagram" d="M238.087,8.709a8.455,8.455,0,0,0-4.836-4.836,12.119,12.119,0,0,0-4.014-.768c-1.764-.08-2.326-.1-6.818-.1s-5.054.019-6.817.1a12.114,12.114,0,0,0-4.014.768,8.455,8.455,0,0,0-4.836,4.836,12.116,12.116,0,0,0-.768,4.014c-.081,1.764-.1,2.326-.1,6.817s.019,5.054.1,6.817a12.107,12.107,0,0,0,.768,4.013,8.455,8.455,0,0,0,4.836,4.836,12.121,12.121,0,0,0,4.014.768c1.764.08,2.327.1,6.817.1s5.054-.019,6.818-.1a12.125,12.125,0,0,0,4.014-.768,8.455,8.455,0,0,0,4.836-4.836,12.125,12.125,0,0,0,.769-4.013c.08-1.764.1-2.326.1-6.817s-.019-5.054-.1-6.817a12.134,12.134,0,0,0-.769-4.014M222.42,28.031a8.491,8.491,0,1,1,8.491-8.491,8.491,8.491,0,0,1-8.491,8.491M231.247,12.7a1.984,1.984,0,1,1,1.984-1.984,1.985,1.985,0,0,1-1.984,1.984m-3.315,6.842a5.512,5.512,0,1,1-5.512-5.512,5.511,5.511,0,0,1,5.512,5.512" transform="translate(-205.885 -3.005)" fill-rule="evenodd"/>
</svg>
