<svg xmlns="http://www.w3.org/2000/svg" width="32.173" height="32.299" viewBox="0 0 32.381 26.317">
  <path id="Twitter" d="M462.815,19.758A13.257,13.257,0,0,1,459,20.8a6.666,6.666,0,0,0,2.921-3.675,13.311,13.311,0,0,1-4.218,1.613A6.649,6.649,0,0,0,446.381,24.8a18.861,18.861,0,0,1-13.694-6.941,6.648,6.648,0,0,0,2.057,8.869,6.592,6.592,0,0,1-3.009-.831c0,.028,0,.055,0,.085a6.646,6.646,0,0,0,5.33,6.513,6.635,6.635,0,0,1-3,.114,6.652,6.652,0,0,0,6.206,4.614,13.331,13.331,0,0,1-8.251,2.844,13.562,13.562,0,0,1-1.585-.092,18.809,18.809,0,0,0,10.184,2.984c12.22,0,18.9-10.124,18.9-18.9q0-.432-.019-.859a13.513,13.513,0,0,0,3.314-3.44" transform="translate(-430.434 -16.642)"  fill-rule="evenodd"/>
</svg>
