<svg id="Youtube" xmlns="http://www.w3.org/2000/svg" width="23.173" height="16.299" viewBox="0 0 23.173 16.299">
  <path id="Youtube-2" data-name="Youtube" d="M22.021,24.031a3.314,3.314,0,0,0-2.322-.982c-3.243-.234-8.107-.234-8.107-.234h-.01s-4.864,0-8.107.234a3.314,3.314,0,0,0-2.322.982,5.011,5.011,0,0,0-.921,2.3A35.064,35.064,0,0,0,0,30.082V31.84A35.065,35.065,0,0,0,.232,35.59a5.011,5.011,0,0,0,.921,2.3,3.929,3.929,0,0,0,2.555.991c1.854.178,7.879.233,7.879.233s4.869-.007,8.112-.242a3.314,3.314,0,0,0,2.322-.982,5.013,5.013,0,0,0,.921-2.3,35.09,35.09,0,0,0,.231-3.751V30.082a35.09,35.09,0,0,0-.231-3.751,5.013,5.013,0,0,0-.921-2.3M9.193,33.97V27.459l6.262,3.267Z" transform="translate(0 -22.815)" fill="#ff0043" fill-rule="evenodd"/>
</svg>
