<svg xmlns="http://www.w3.org/2000/svg" xmlns:xlink="http://www.w3.org/1999/xlink" width="41" height="41" viewBox="0 0 41 41">
  <defs>
    <clipPath id="clip-path">
      <rect id="Retângulo_1" data-name="Retângulo 1" width="41" height="41" transform="translate(0 -0.224)" fill="#ff0043"/>
    </clipPath>
  </defs>
  <g id="javascript_icon" data-name="javascript icon" transform="translate(0 0.224)" clip-path="url(#clip-path)">
    <path id="Caminho_1" data-name="Caminho 1" d="M53.1,24.339c0-3.3-2.233-4.185-6.935-4.806-4.75-.627-5.234-.952-5.234-2.064,0-.918.408-2.145,3.928-2.145,3.143,0,4.3.676,4.777,2.794a.441.441,0,0,0,.431.347h1.984a.454.454,0,0,0,.324-.141.444.444,0,0,0,.116-.342c-.308-3.649-2.732-5.35-7.632-5.35-4.362,0-6.965,1.841-6.965,4.927,0,3.349,2.588,4.274,6.775,4.689,5.01.491,5.4,1.222,5.4,2.207,0,1.709-1.372,2.438-4.6,2.438-4.048,0-4.938-1.016-5.238-3.03a.443.443,0,0,0-.44-.373H37.816a.439.439,0,0,0-.442.44c0,2.578,1.4,5.65,8.1,5.65,4.849,0,7.629-1.907,7.629-5.242M40.749,41.746a3.2,3.2,0,0,1-1.6-.429L34.038,38.3c-.762-.427-.39-.578-.14-.667a10.232,10.232,0,0,0,2.31-1.05.386.386,0,0,1,.38.03l3.924,2.329a.5.5,0,0,0,.472,0l15.3-8.829a.484.484,0,0,0,.234-.415V12.038a.491.491,0,0,0-.239-.42L40.987,2.8a.483.483,0,0,0-.472,0L25.228,11.62a.491.491,0,0,0-.243.419V29.693a.469.469,0,0,0,.243.41l4.19,2.421c2.273,1.138,3.666-.2,3.666-1.549V13.545a.44.44,0,0,1,.446-.441h1.939a.443.443,0,0,1,.444.441v17.43c0,3.036-1.652,4.775-4.529,4.775a6.538,6.538,0,0,1-3.524-.959l-4.014-2.308a3.23,3.23,0,0,1-1.6-2.79V12.038a3.225,3.225,0,0,1,1.6-2.788l15.3-8.84a3.348,3.348,0,0,1,3.214,0l15.3,8.84a3.228,3.228,0,0,1,1.607,2.788V29.693a3.235,3.235,0,0,1-1.607,2.79l-15.3,8.833a3.194,3.194,0,0,1-1.609.429" transform="translate(-19.698 -0.149)" fill="#ff0043"/>
  </g>
</svg>
