<svg id="Camada_1" data-name="Camada 1" xmlns="http://www.w3.org/2000/svg" viewBox="0 0 964 218.8008">
  <g>
    <g id="type">
      <path id="type_PathItem_" data-name="type &lt;PathItem&gt;" d="M757.22,92.4829H750.61l6.606,11.3246h.0045v20.5467a2.06,2.06,0,0,1-2.06,2.06H720.5788a2.06,2.06,0,0,1-2.06-2.06l.0017-31.87h32.0824L743.9975,81.16H719.4419a2.2233,2.2233,0,0,0-1.5722.6512L707.72,91.96a1.79,1.79,0,0,0-.5241,1.2651l-.0015,32.2678a2.2235,2.2235,0,0,0,.6512,1.5722l10.0219,10.0219a2.2235,2.2235,0,0,0,1.5726.6513l46.8841-.0083a2.2236,2.2236,0,0,0,2.2231-2.2235V60.7415a2.2234,2.2234,0,0,0-2.2235-2.2234h-6.88a2.2233,2.2233,0,0,0-2.2234,2.2234Z" style="fill: #e9e8f5"/>
      <path id="type_PathItem_2" data-name="type &lt;PathItem&gt;" d="M310.0261,92.4829h-6.6105l6.606,11.3246h.0045v20.5467a2.06,2.06,0,0,1-2.06,2.06H273.3847a2.06,2.06,0,0,1-2.06-2.06l.0017-31.87h32.0824L296.8034,81.16H272.2478a2.2233,2.2233,0,0,0-1.5722.6512L260.5261,91.96a1.79,1.79,0,0,0-.5241,1.2651l-.0015,32.2678a2.2235,2.2235,0,0,0,.6512,1.5722l10.0219,10.0219a2.2235,2.2235,0,0,0,1.5726.6513L319.13,137.73a2.2236,2.2236,0,0,0,2.2231-2.2235V60.7415a2.2234,2.2234,0,0,0-2.2235-2.2234h-6.88a2.2233,2.2233,0,0,0-2.2234,2.2234Z" style="fill: #e9e8f5"/>
      <path id="type_PathItem_3" data-name="type &lt;PathItem&gt;" d="M789.378,84.4739l4.6555,7.9807h35.861v9.265a2.06,2.06,0,0,1-2.0595,2.06H800.6394l6.606,11.3246h31.75a2.2234,2.2234,0,0,0,2.2234-2.2234V93.3756a2.2233,2.2233,0,0,0-.6512-1.5722L830.5457,81.7813a2.2237,2.2237,0,0,0-1.5722-.6512H791.2986A2.2234,2.2234,0,0,0,789.378,84.4739Z" style="fill: #e9e8f5"/>
      <path id="type_PathItem_4" data-name="type &lt;PathItem&gt;" d="M779.878,94.6782l.0025,30.9234a1.9957,1.9957,0,0,0,.5845,1.4111l10.1556,10.1555a1.9955,1.9955,0,0,0,1.4112.5845H829.801a2.2234,2.2234,0,0,0,1.9206-3.3437l-4.012-6.8777a2.2232,2.2232,0,0,0-1.9205-1.1031H793.2647a2.06,2.06,0,0,1-2.06-2.0595v-20.59h9.4343l-6.6059-11.3245H782.1014A2.2234,2.2234,0,0,0,779.878,94.6782Z" style="fill: #e9e8f5"/>
      <path id="type_PathItem_5" data-name="type &lt;PathItem&gt;" d="M248.0187,91.8034a2.2233,2.2233,0,0,1,.6512,1.5722V112.88a2.2234,2.2234,0,0,1-2.2234,2.2234h-31.75l-6.606-11.3246h27.1955a2.06,2.06,0,0,0,2.06-2.0595v-9.265h-35.861l-4.6555-7.9807A2.2234,2.2234,0,0,1,198.75,81.13h37.6749a2.2237,2.2237,0,0,1,1.5722.6512Z" style="fill: #e9e8f5"/>
      <path id="type_PathItem_6" data-name="type &lt;PathItem&gt;" d="M198.0715,137.1682a1.9955,1.9955,0,0,0,1.4112.5845h37.7692a2.2234,2.2234,0,0,0,1.9206-3.3437l-4.012-6.8777a2.2232,2.2232,0,0,0-1.9205-1.1031H200.7155a2.06,2.06,0,0,1-2.0595-2.0595v-20.59H208.09l-6.6059-11.3245H189.5523a2.2234,2.2234,0,0,0-2.2234,2.2236l.0025,30.9234a1.9957,1.9957,0,0,0,.5845,1.4111Z" style="fill: #e9e8f5"/>
      <path id="type_CompoundPathItem_" data-name="type &lt;CompoundPathItem&gt;" d="M694.2766,91.8034,684.2545,81.7813a2.2237,2.2237,0,0,0-1.5722-.6512h-39.29a2.2234,2.2234,0,0,0-1.9205,3.3438l4.012,6.8776a2.2232,2.2232,0,0,0,1.92,1.1031h36.1992v22.6281L677.01,103.7791H642.49a2.2235,2.2235,0,0,0-2.2234,2.2234v19.5047a2.2231,2.2231,0,0,0,.6512,1.5722L650.94,137.1015a2.2231,2.2231,0,0,0,1.5722.6512h49.0172l-6.6015-11.3169v-33.06A2.2237,2.2237,0,0,0,694.2766,91.8034Zm-42.6855,23.3h32.0122v9.265a2.06,2.06,0,0,1-2.0595,2.06H653.6506a2.06,2.06,0,0,1-2.06-2.0595Z" style="fill: #e9e8f5"/>
      <path id="type_PathItem_7" data-name="type &lt;PathItem&gt;" d="M382.6978,115.1037h-.0072l-6.606,11.3245H346.0679a2.06,2.06,0,0,1-2.06-2.0595V83.3679a2.2235,2.2235,0,0,0-2.2234-2.2234h-6.8777a2.2234,2.2234,0,0,0-2.2234,2.2234v42.1393a2.2231,2.2231,0,0,0,.6512,1.5722l10.0221,10.0221a2.2231,2.2231,0,0,0,1.5722.6512h24.5492l6.6-11.314,6.6,11.314H391.79a2.2234,2.2234,0,0,0,2.2235-2.223l.0086-52.1614a2.2234,2.2234,0,0,0-2.2234-2.2238h-6.8773a2.2234,2.2234,0,0,0-2.2234,2.2234Z" style="fill: #e9e8f5"/>
      <path id="type_CompoundPathItem_2" data-name="type &lt;CompoundPathItem&gt;" d="M532.0639,91.8034,522.0418,81.7813A2.2236,2.2236,0,0,0,520.47,81.13h-39.29a2.2234,2.2234,0,0,0-1.9205,3.3438l4.012,6.8776a2.2232,2.2232,0,0,0,1.9205,1.1031h36.1992v22.6281l-6.5938-11.3036H480.2773a2.2235,2.2235,0,0,0-2.2234,2.2234v19.5047a2.2231,2.2231,0,0,0,.6512,1.5722l10.0221,10.0221a2.2231,2.2231,0,0,0,1.5722.6512h49.0172l-6.6015-11.3169v-33.06A2.2233,2.2233,0,0,0,532.0639,91.8034Zm-42.6855,23.3h32.0122v9.265a2.06,2.06,0,0,1-2.0595,2.06H491.4379a2.06,2.06,0,0,1-2.06-2.0595Z" style="fill: #e9e8f5"/>
      <path id="type_PathItem_8" data-name="type &lt;PathItem&gt;" d="M429.8755,81.1356l-6.6027,11.319H407.5759a2.2234,2.2234,0,0,0-2.2234,2.2235l.0025,57.7619a2.2234,2.2234,0,0,0,2.2234,2.2233h6.8806a2.2233,2.2233,0,0,0,2.2234-2.2234V103.7715L423.2807,92.46h32.1028l-.0017,20.6288a2.06,2.06,0,0,1-2.06,2.0594H422.6581l6.6058,11.3243h25.1968a2.2237,2.2237,0,0,0,1.5722-.6512L466.13,115.6873a1.9755,1.9755,0,0,0,.5761-1.3941l.0015-20.9121a2.2233,2.2233,0,0,0-.6512-1.5722L456.0347,81.7868a2.2237,2.2237,0,0,0-1.5722-.6512Z" style="fill: #e9e8f5"/>
      <path id="type_PathItem_9" data-name="type &lt;PathItem&gt;" d="M547.2053,137.7383h6.8779a2.2234,2.2234,0,0,0,2.2235-2.2234v-52.15a2.2234,2.2234,0,0,0-2.2206-2.2234l-6.878-.0088a2.2234,2.2234,0,0,0-2.2262,2.2234v52.1586A2.2233,2.2233,0,0,0,547.2053,137.7383Z" style="fill: #e9e8f5"/>
      <path id="type_PathItem_10" data-name="type &lt;PathItem&gt;" d="M914,83.1977V113.347L889.6666,137.68H877.0454L852.712,113.347V83.1977a2.0672,2.0672,0,0,1,2.0672-2.0672h8.9122a2.0672,2.0672,0,0,1,2.0672,2.0672V124.243a2.149,2.149,0,0,0,2.1482,2.1506h30.896a2.1507,2.1507,0,0,0,2.1506-2.1506V83.1977a2.0672,2.0672,0,0,1,2.0671-2.0672h8.9123A2.0672,2.0672,0,0,1,914,83.1977Z" style="fill: #e9e8f5"/>
      <path id="type_PathItem_11" data-name="type &lt;PathItem&gt;" d="M628.88,83.1977V113.347L604.547,137.68H591.9259L567.5924,113.347V83.1977a2.0672,2.0672,0,0,1,2.0672-2.0672h8.9122a2.0672,2.0672,0,0,1,2.0672,2.0672V124.243a2.149,2.149,0,0,0,2.1482,2.1506h30.8961a2.1506,2.1506,0,0,0,2.15-2.1506V83.1977a2.0672,2.0672,0,0,1,2.0672-2.0672h8.9123A2.0672,2.0672,0,0,1,628.88,83.1977Z" style="fill: #e9e8f5"/>
    </g>
    <g id="logoMark">
      <polygon id="logoMark_PathItem_" data-name="logoMark &lt;PathItem&gt;" points="50 140.353 50 82.772 68.731 64.042 101.65 64.042 101.65 82.824 68.782 82.824 68.782 121.573 50 140.353" style="fill: #e61d48"/>
      <polygon id="logoMark_PathItem_2" data-name="logoMark &lt;PathItem&gt;" points="134.53 50 134.53 76.564 101.657 109.376 101.657 82.812 134.53 50" style="fill: #e61d48"/>
      <polygon id="logoMark_PathItem_3" data-name="logoMark &lt;PathItem&gt;" points="153.312 78.397 153.312 135.978 134.581 154.708 101.662 154.708 101.662 135.926 134.53 135.926 134.53 97.177 153.312 78.397" style="fill: #e61d48"/>
      <polygon id="logoMark_PathItem_4" data-name="logoMark &lt;PathItem&gt;" points="101.657 109.376 101.657 135.937 68.781 168.801 68.781 142.24 101.657 109.376" style="fill: #e61d48"/>
    </g>
  </g>
</svg>
